<svg xmlns="http://www.w3.org/2000/svg" version="1.1" xmlns:xlink="http://www.w3.org/1999/xlink" viewBox="0 0 12.084844782536052 4.543020563786053"><g transform="matrix(0.7662791079576243,0,0,0.7662791079576243,4.684399912409843,1.8031221771539285)"><rect width="13.470500228062894" height="13.470500228062894" x="-4.963020563786053" y="-6.124000114031447" fill="#ffffff"></rect><g transform="matrix(1,0,0,1,0,0)" clip-path="url(#SvgjsClipPath124296)"><g clip-path="url(#SvgjsClipPath124291d0aaf912-6b06-4bbc-996c-85d529210c6a)"><path d=" M -1.1642483650122095 -0.9674325591296052 C -0.897258033023562 -0.9690906523081314 -0.6498362625176108 -0.827604196474438 -0.5158601552564139 -0.596656173465941 C -0.3818840479952166 -0.3657081504574444 -0.3818840479952166 -0.0806889410966033 -0.5158601552564139 0.1502590819118933 C -0.6498362625176108 0.3812071049203901 -0.897258033023562 0.5226935607540836 -1.1642483650122095 0.5210354675755574 L -1.7698884013328402 0.5210354675755574 C -1.8463604054412577 0.5210354675755574 -1.9083532134281347 0.4590426595886802 -1.9083532134281347 0.3825706554802625 L -1.9083532134281347 -0.22306938084036787 C -1.9084166289634181 -0.6340951975944753 -1.5752741790176743 -0.9673533041539238 -1.164248365012389 -0.9674325591296052 Z M -1.660385238367759 0.38572802059852196 C -1.5981011371774663 0.3857280205985215 -1.5476098970073915 0.33523678042844696 -1.5476098970073915 0.2729526792381539 C -1.5476098970073915 0.2106685780478611 -1.5981011371774663 0.16017733787778654 -1.660385238367759 0.16017733787778632 C -1.722669339558052 0.16017733787778632 -1.7731605797281267 0.21066857804786088 -1.7731605797281267 0.2729526792381539 C -1.7731605801738186 0.3028625577337233 -1.7612789269643965 0.33154740726430043 -1.7401294481825842 0.3526968866764165 C -1.7189799694007715 0.3738463660885324 -1.6902951202242955 0.3857280201528296 -1.6603852400482424 0.38572802059852196 Z" fill="#9f11af" transform="matrix(1,0,0,1,0,0)" fill-rule="evenodd"></path></g><g clip-path="url(#SvgjsClipPath124291d0aaf912-6b06-4bbc-996c-85d529210c6a)"><path d=" M -2.8331167532470007 -0.9674325591296052 C -3.1001070852356483 -0.9690906523081314 -3.347528855741599 -0.827604196474438 -3.4815049630027963 -0.596656173465941 C -3.6154810702639937 -0.3657081504574443 -3.6154810702639937 -0.08068894109660307 -3.4815049630027963 0.15025908191189352 C -3.3475288557415985 0.38120710492039034 -3.100107085235648 0.5226935607540836 -2.833116753247 0.5210354675755574 L -2.22747671692637 0.5210354675755574 C -2.1510047128179526 0.5210354675755574 -2.0890119048310756 0.4590426595886802 -2.0890119048310756 0.3825706554802625 L -2.0890119048310756 -0.22306938084036787 C -2.08897383855523 -0.420453680617458 -2.1673499053973813 -0.6097683355685233 -2.306897459494891 -0.7493643362012978 C -2.4464450135924003 -0.8889603368340724 -2.6357324521490053 -0.9674021116582415 -2.833116753247686 -0.9674325591296052 Z M -2.336979879891451 0.38572802059852196 C -2.291363901914905 0.3857396306721931 -2.2502331117223227 0.35827016309977855 -2.2327685873788585 0.3161298264731317 C -2.2153040630353953 0.27398948984648486 -2.224945556306321 0.22547809780209127 -2.257196819144167 0.19321862435761694 C -2.2894480819820124 0.1609591509131424 -2.3379570182118705 0.1513053093759219 -2.3801017990693043 0.1687591063275714 C -2.422246579926738 0.1862129032792209 -2.449726516455077 0.2273366997841234 -2.449726517932562 0.2729526792381539 C -2.449726520007495 0.33522557270180375 -2.399252771547938 0.38571217098760024 -2.3369798799963752 0.38572802059849487 Z" fill="#9f11af" transform="matrix(1,0,0,1,0,0)" fill-rule="evenodd"></path></g><g clip-path="url(#SvgjsClipPath124291d0aaf912-6b06-4bbc-996c-85d529210c6a)"><path d=" M -1.1642483650122095 2.189932559129605 C -0.897258033023562 2.1915906523081317 -0.6498362625176108 2.0501041964744378 -0.5158601552564139 1.8191561734659412 C -0.3818840479952166 1.5882081504574446 -0.3818840479952166 1.3031889410966033 -0.5158601552564139 1.0722409180881067 C -0.6498362625176108 0.84129289507961 -0.897258033023562 0.6998064392459168 -1.1642483650122095 0.701464532424443 L -1.7698884013328402 0.701464532424443 C -1.8463604054412577 0.701464532424443 -1.9083532134281347 0.7634573404113197 -1.9083532134281347 0.8399293445197377 L -1.9083532134281347 1.445569380840368 C -1.9084166289634181 1.856595197594475 -1.5752741790176743 2.189853304153923 -1.1642483650123894 2.189932559129605 Z M -1.660385238367759 1.0622939588029565 C -1.6147692589137284 1.0622939573254722 -1.5736454624088254 1.0348140207971332 -1.5561916654571761 0.9926692399396989 C -1.5387378685055269 0.9505244590822651 -1.548391710042747 0.902015522852407 -1.5806511834872217 0.8697642600145615 C -1.612910656931696 0.837512997176716 -1.6614220489760896 0.8278715039057901 -1.7035623856027367 0.8453360282492538 C -1.7457027222293833 0.8628005525927175 -1.7731721898017978 0.9039313427852996 -1.7731605797281267 0.9495473207618458 C -1.7731605807246362 0.9794545620722847 -1.7612780111476298 1.008136461381194 -1.740127706564862 1.0292813828759666 C -1.718977401982094 1.0504263043707391 -1.6902924789151026 1.062301572635481 -1.660385238470797 1.0622939588029827 Z" fill="#9f11af" transform="matrix(1,0,0,1,0,0)" fill-rule="evenodd"></path></g><g clip-path="url(#SvgjsClipPath124291d0aaf912-6b06-4bbc-996c-85d529210c6a)"><path d=" M -2.8331167532470007 2.189932559129605 C -3.1001070852356483 2.1915906523081317 -3.347528855741599 2.0501041964744378 -3.4815049630027963 1.8191561734659412 C -3.6154810702639937 1.5882081504574446 -3.6154810702639937 1.3031889410966029 -3.4815049630027963 1.0722409180881067 C -3.3475288557415985 0.8412928950796096 -3.100107085235648 0.6998064392459163 -2.833116753247 0.701464532424443 L -2.22747671692637 0.701464532424443 C -2.1510047128179526 0.701464532424443 -2.0890119048310756 0.7634573404113197 -2.0890119048310756 0.8399293445197377 L -2.0890119048310756 1.445569380840368 C -2.088973838555116 1.6429536806170293 -2.1673499053971588 1.8322683355681404 -2.306897459494588 1.971864336200995 C -2.446445013592017 2.1114603368338494 -2.635732452148577 2.1899021116581285 -2.8331167532472574 2.189932559129605 Z M -2.336979879891451 1.0622939588029565 C -2.2913612901610145 1.062305568064172 -2.2502286845574524 1.0348329940223011 -2.232765842856325 0.9926891329807422 C -2.215303001155198 0.9505452719391833 -2.2249497564063803 0.9020316276589594 -2.2572069715974723 0.8697744124678676 C -2.2894641867885643 0.8375171972767753 -2.3379778310687884 0.8278704420255932 -2.380121692110347 0.8453332837267201 C -2.422265553151906 0.8627961254278468 -2.4497381271937773 0.9039287310314096 -2.449726517932562 0.949547320761846 C -2.449710673248128 1.0118090052824091 -2.3992415644120713 1.0622781141184912 -2.33697987989148 1.0622939588029565 Z" fill="#9f11af" transform="matrix(1,0,0,1,0,0)" fill-rule="evenodd"></path></g></g><g><path d=" M 0.801 0.1649999999999998 L 0.801 0.3989999999999999 L 0.378 0.3989999999999999 L 0.378 0.5849999999999999 L 0.6900000000000001 0.5849999999999999 L 0.6900000000000001 0.8084999999999999 L 0.378 0.8084999999999999 L 0.378 1.2225 L 0.084 1.2225 L 0.084 0.1649999999999998 L 0.801 0.1649999999999998 M 0.923211181640625 0.573 Q 0.970461181640625 0.4754999999999999 1.052211181640625 0.42299999999999993 Q 1.133961181640625 0.37049999999999994 1.234461181640625 0.37049999999999994 Q 1.321461181640625 0.37049999999999994 1.384461181640625 0.4049999999999999 Q 1.4474611816406249 0.4394999999999999 1.4819611816406248 0.4979999999999999 L 1.4819611816406248 0.3809999999999999 L 1.7759611816406249 0.3809999999999999 L 1.7759611816406249 1.2225 L 1.4819611816406248 1.2225 L 1.4819611816406248 1.1055 Q 1.4474611816406249 1.164 1.3837111816406251 1.1985 Q 1.319961181640625 1.2329999999999999 1.234461181640625 1.2329999999999999 Q 1.133961181640625 1.2329999999999999 1.052211181640625 1.1804999999999999 Q 0.970461181640625 1.128 0.923211181640625 1.02975 Q 0.875961181640625 0.9315 0.875961181640625 0.8009999999999999 Q 0.875961181640625 0.6704999999999999 0.923211181640625 0.573 M 1.437711181640625 0.6734999999999999 Q 1.393461181640625 0.6269999999999999 1.3289611816406248 0.6269999999999999 Q 1.262961181640625 0.6269999999999999 1.219461181640625 0.67275 Q 1.175961181640625 0.7184999999999999 1.175961181640625 0.8009999999999999 Q 1.175961181640625 0.8819999999999999 1.219461181640625 0.9292499999999999 Q 1.262961181640625 0.9764999999999999 1.3289611816406248 0.9764999999999999 Q 1.393461181640625 0.9764999999999999 1.437711181640625 0.9299999999999999 Q 1.4819611816406248 0.8835 1.4819611816406248 0.8009999999999999 Q 1.4819611816406248 0.7199999999999999 1.437711181640625 0.6734999999999999 M 2.7239501953125 0.47024999999999995 Q 2.8094501953125 0.567 2.8094501953125 0.732 L 2.8094501953125 1.2225 L 2.5154501953125 1.2225 L 2.5154501953125 0.7709999999999999 Q 2.5154501953125 0.699 2.4779501953125 0.65775 Q 2.4404501953124997 0.6164999999999999 2.3774501953125 0.6164999999999999 Q 2.3114501953124997 0.6164999999999999 2.2739501953125 0.65775 Q 2.2364501953125 0.699 2.2364501953125 0.7709999999999999 L 2.2364501953125 1.2225 L 1.9424501953125 1.2225 L 1.9424501953125 0.3809999999999999 L 2.2364501953125 0.3809999999999999 L 2.2364501953125 0.5009999999999999 Q 2.2754501953124997 0.44399999999999995 2.3414501953125 0.40874999999999995 Q 2.4074501953125 0.37349999999999994 2.4929501953125 0.37349999999999994 Q 2.6384501953125 0.37349999999999994 2.7239501953125 0.47024999999999995 M 3.135661376953125 1.1804999999999999 Q 3.0359113769531247 1.128 2.978911376953125 1.0305 Q 2.921911376953125 0.9329999999999999 2.921911376953125 0.8009999999999999 Q 2.921911376953125 0.6704999999999999 2.979661376953125 0.573 Q 3.037411376953125 0.4754999999999999 3.137161376953125 0.42299999999999993 Q 3.236911376953125 0.37049999999999994 3.3629113769531247 0.37049999999999994 Q 3.4889113769531246 0.37049999999999994 3.588661376953125 0.42299999999999993 Q 3.688411376953125 0.4754999999999999 3.746161376953125 0.573 Q 3.803911376953125 0.6704999999999999 3.803911376953125 0.8009999999999999 Q 3.803911376953125 0.9315 3.746161376953125 1.02975 Q 3.688411376953125 1.128 3.587911376953125 1.1804999999999999 Q 3.487411376953125 1.2329999999999999 3.361411376953125 1.2329999999999999 Q 3.2354113769531248 1.2329999999999999 3.135661376953125 1.1804999999999999 M 3.464161376953125 0.9322499999999999 Q 3.5054113769531248 0.8864999999999998 3.5054113769531248 0.8009999999999999 Q 3.5054113769531248 0.7154999999999999 3.464161376953125 0.6704999999999999 Q 3.4229113769531248 0.6255 3.3629113769531247 0.6255 Q 3.3029113769531246 0.6255 3.262411376953125 0.6704999999999999 Q 3.2219113769531247 0.7154999999999999 3.2219113769531247 0.8009999999999999 Q 3.2219113769531247 0.8879999999999999 3.260911376953125 0.9329999999999999 Q 3.299911376953125 0.978 3.361411376953125 0.978 Q 3.4229113769531248 0.978 3.464161376953125 0.9322499999999999 M 4.0881408691406245 1.1804999999999999 Q 3.9883908691406247 1.128 3.9313908691406247 1.0305 Q 3.874390869140625 0.9329999999999999 3.874390869140625 0.8009999999999999 Q 3.874390869140625 0.6704999999999999 3.9321408691406248 0.573 Q 3.9898908691406247 0.4754999999999999 4.0896408691406245 0.42299999999999993 Q 4.189390869140625 0.37049999999999994 4.315390869140625 0.37049999999999994 Q 4.4413908691406245 0.37049999999999994 4.541140869140625 0.42299999999999993 Q 4.640890869140625 0.4754999999999999 4.6986408691406245 0.573 Q 4.756390869140625 0.6704999999999999 4.756390869140625 0.8009999999999999 Q 4.756390869140625 0.9315 4.6986408691406245 1.02975 Q 4.640890869140625 1.128 4.540390869140625 1.1804999999999999 Q 4.4398908691406245 1.2329999999999999 4.313890869140625 1.2329999999999999 Q 4.187890869140625 1.2329999999999999 4.0881408691406245 1.1804999999999999 M 4.4166408691406245 0.9322499999999999 Q 4.457890869140625 0.8864999999999998 4.457890869140625 0.8009999999999999 Q 4.457890869140625 0.7154999999999999 4.4166408691406245 0.6704999999999999 Q 4.375390869140625 0.6255 4.315390869140625 0.6255 Q 4.255390869140625 0.6255 4.214890869140625 0.6704999999999999 Q 4.174390869140625 0.7154999999999999 4.174390869140625 0.8009999999999999 Q 4.174390869140625 0.8879999999999999 4.213390869140625 0.9329999999999999 Q 4.2523908691406245 0.978 4.313890869140625 0.978 Q 4.375390869140625 0.978 4.4166408691406245 0.9322499999999999 M 5.030120361328125 1.19475 Q 4.940870361328125 1.1564999999999999 4.889120361328125 1.08975 Q 4.837370361328125 1.023 4.8313703613281245 0.9389999999999998 L 5.116370361328125 0.9389999999999998 Q 5.122370361328125 0.9794999999999999 5.153870361328124 1.002 Q 5.185370361328125 1.0245 5.2318703613281246 1.0245 Q 5.267870361328125 1.0245 5.288870361328125 1.0094999999999998 Q 5.309870361328125 0.9944999999999999 5.309870361328125 0.9704999999999999 Q 5.309870361328125 0.9389999999999998 5.275370361328124 0.9239999999999999 Q 5.240870361328125 0.9089999999999999 5.1613703613281245 0.8909999999999999 Q 5.071370361328125 0.8729999999999999 5.011370361328125 0.8504999999999999 Q 4.951370361328125 0.8279999999999998 4.907120361328125 0.7769999999999999 Q 4.862870361328125 0.726 4.862870361328125 0.6389999999999999 Q 4.862870361328125 0.564 4.9033703613281245 0.5032499999999999 Q 4.943870361328124 0.4424999999999999 5.022620361328125 0.40649999999999986 Q 5.101370361328125 0.37049999999999994 5.212370361328125 0.37049999999999994 Q 5.377370361328125 0.37049999999999994 5.471870361328125 0.4514999999999999 Q 5.566370361328125 0.5324999999999999 5.5813703613281245 0.6644999999999999 L 5.315870361328125 0.6644999999999999 Q 5.308370361328125 0.6239999999999999 5.280620361328125 0.60225 Q 5.2528703613281245 0.5804999999999999 5.2063703613281245 0.5804999999999999 Q 5.170370361328125 0.5804999999999999 5.151620361328125 0.5939999999999999 Q 5.132870361328124 0.6074999999999999 5.132870361328124 0.6315 Q 5.132870361328124 0.6614999999999999 5.167370361328125 0.6772499999999999 Q 5.201870361328124 0.693 5.2783703613281245 0.7094999999999999 Q 5.3698703613281245 0.7289999999999999 5.430620361328125 0.7529999999999999 Q 5.491370361328125 0.7769999999999999 5.537120361328125 0.8302499999999999 Q 5.5828703613281245 0.8835 5.5828703613281245 0.9749999999999999 Q 5.5828703613281245 1.0485 5.540120361328125 1.107 Q 5.497370361328125 1.1655 5.4186203613281245 1.19925 Q 5.339870361328125 1.2329999999999999 5.233370361328125 1.2329999999999999 Q 5.119370361328125 1.2329999999999999 5.030120361328125 1.19475 M 5.724610107421874 0.573 Q 5.771860107421874 0.4754999999999999 5.853610107421875 0.42299999999999993 Q 5.935360107421874 0.37049999999999994 6.0358601074218745 0.37049999999999994 Q 6.122860107421874 0.37049999999999994 6.185860107421875 0.4049999999999999 Q 6.248860107421875 0.4394999999999999 6.283360107421875 0.4979999999999999 L 6.283360107421875 0.3809999999999999 L 6.577360107421875 0.3809999999999999 L 6.577360107421875 1.2225 L 6.283360107421875 1.2225 L 6.283360107421875 1.1055 Q 6.248860107421875 1.164 6.185110107421875 1.1985 Q 6.121360107421875 1.2329999999999999 6.0358601074218745 1.2329999999999999 Q 5.935360107421874 1.2329999999999999 5.853610107421875 1.1804999999999999 Q 5.771860107421874 1.128 5.724610107421874 1.02975 Q 5.677360107421874 0.9315 5.677360107421874 0.8009999999999999 Q 5.677360107421874 0.6704999999999999 5.724610107421874 0.573 M 6.239110107421874 0.6734999999999999 Q 6.194860107421874 0.6269999999999999 6.1303601074218745 0.6269999999999999 Q 6.064360107421875 0.6269999999999999 6.020860107421875 0.67275 Q 5.977360107421875 0.7184999999999999 5.977360107421875 0.8009999999999999 Q 5.977360107421875 0.8819999999999999 6.020860107421875 0.9292499999999999 Q 6.064360107421875 0.9764999999999999 6.1303601074218745 0.9764999999999999 Q 6.194860107421874 0.9764999999999999 6.239110107421874 0.9299999999999999 Q 6.283360107421875 0.8835 6.283360107421875 0.8009999999999999 Q 6.283360107421875 0.7199999999999999 6.239110107421874 0.6734999999999999 M 6.767099121093749 0.26024999999999987 Q 6.719849121093749 0.2174999999999998 6.719849121093749 0.1529999999999998 Q 6.719849121093749 0.08699999999999997 6.767099121093749 0.04349999999999987 Q 6.814349121093749 0 6.8923491210937495 0 Q 6.96884912109375 0 7.01609912109375 0.04349999999999987 Q 7.06334912109375 0.08699999999999997 7.06334912109375 0.1529999999999998 Q 7.06334912109375 0.2174999999999998 7.01609912109375 0.26024999999999987 Q 6.96884912109375 0.30299999999999994 6.8923491210937495 0.30299999999999994 Q 6.814349121093749 0.30299999999999994 6.767099121093749 0.26024999999999987 M 7.03784912109375 0.3809999999999999 L 7.03784912109375 1.2225 L 6.743849121093749 1.2225 L 6.743849121093749 0.3809999999999999 L 7.03784912109375 0.3809999999999999" fill="#002540" fill-rule="nonzero"></path></g><g></g></g><defs><clipPath id="SvgjsClipPath124296"><path d=" M -3.5773651182592103 -0.9674325591296052 h 3.1573651182592104 v 3.1573651182592104 h -3.1573651182592104 Z"></path></clipPath><clipPath id="SvgjsClipPath124291d0aaf912-6b06-4bbc-996c-85d529210c6a"><path d=" M -3.5773651182592103 -0.9674325591296052 L -0.41999999999999993 -0.9674325591296052 L -0.41999999999999993 2.189932559129605 L -3.5773651182592103 2.189932559129605 Z"></path></clipPath></defs></svg>